# xmcd
#
# Track frame offsets: 
#        183
#        21908
#        33495
#        46708
#        59595
#        71033
#        85833
#        97070
#        115995
#        127770
#        136170
#        155645
#        170783
#        182620
#        191795
#        202883
#        213533
#        236408
#        248370
#        257558
#        270820
#        285945
#        304420
#        317770
#        331620
#
# Disc length: 4674 seconds
#
# Revision: 2
# Processed by: cddbd v1.5.2PL0 Copyright (c) Steve Scherf et al.
# Submitted via: ExactAudioCopyFreeDBPlugin 1.0
#
DISCID=5b124019
DTITLE=Various Artist - The Blues Scene
DYEAR=1999
DGENRE=Blues/British Blues
TTITLE0=The Bluesbreakers - Curly
TTITLE1=Eddie Boyd - Key To The Highway
TTITLE2=John Mayall's Bluesbreakers (With Peter Green) - The Supernatu
TTITLE2=ral
TTITLE3=Otis Spann - Pretty Girls Everywhere
TTITLE4=Eddie Boyd - Blue Coat Man
TTITLE5=Champion Jack Dupree (With John Mayall and Eric Clapton) - Thi
TTITLE5=rd Degree
TTITLE6=John Mayall's Bluesbreakers (With Eric Clapton) - Steppin' Out
TTITLE7=Savoy Brown - TrainTo Nowhere
TTITLE8=Curtis Jones - Roll Me Over
TTITLE9=Zoot Money - Get On The Right Track Baby
TTITLE10=Alexis Korner - Night Time Is The Right Time
TTITLE11=Mae Mercer - Sweet Little Angel
TTITLE12=Graham Bond Organisation - Strut Around
TTITLE13=Steve Anglo and John Mayall - Long Night
TTITLE14=Davy Graham - Goin' Down Slow
TTITLE15=Savoy Brown - Taste And Try (Before You Buy)
TTITLE16=Keef Hartley Band - Me And My Woman
TTITLE17=Eddie Boyd - Dust My Broom
TTITLE18=Champion Jack Dupree and Mickey 'Guitar' Baker - Barrelhouse Wo
TTITLE18=man
TTITLE19=Rod Stewart - I'm Gonna Move To The Outskirts Of Town
TTITLE20=John Mayall's Bluesbreakers (With Peter Green) - Double Troub
TTITLE20=le
TTITLE21=Champion Jack Dupree - 24 Hours
TTITLE22=Alexis Korner - Early In The Morning
TTITLE23=Savoy Brown Blues Band - Let Me Love You Baby
TTITLE24=John Mayall's Bluesbreakers - I Need Your Love
EXTD=deram\n844 801-2\npart of the Decca originals series\n\n
EXTT0=
EXTT1=
EXTT2=
EXTT3=
EXTT4=
EXTT5=
EXTT6=
EXTT7=
EXTT8=
EXTT9=
EXTT10=
EXTT11=
EXTT12=
EXTT13=
EXTT14=
EXTT15=
EXTT16=
EXTT17=
EXTT18=
EXTT19=
EXTT20=
EXTT21=
EXTT22=
EXTT23=
EXTT24=
PLAYORDER=
